<svg xmlns="http://www.w3.org/2000/svg" xmlns:v="http://vecta.io" xmlns:xlink="http://www.w3.org/1999/xlink" viewBox="0 0 99 34" stroke="#000" stroke-linecap="round" stroke-linejoin="round" fill="#fff" fill-rule="evenodd" font-family="Roboto" font-size="14px" text-anchor="middle" width="300" height="300"><defs><style type="text/css"></style></defs><g><title>litecoin-ar21</title><use xlink:href="#wb9MkBJF-xh_6wj7eBoi7m.sym" x="0.5" y="0.5"></use></g><symbol id="wb9MkBJF-xh_6wj7eBoi7m.sym" overflow="visible" v:tags="litecoin, logo"><title>litecoin-ar21</title><g id="juhn19wmgpg" class="Group.cls" transform="translate(0 0)" v:abox="{&quot;x&quot;:0,&quot;y&quot;:0,&quot;width&quot;:97.17399597167974,&quot;height&quot;:32.7399978637695}" v:size="99,34,0.5,0.5"><g class="Prim.cls"><g id="juhn19wegpc" transform="translate(0 0)" class=""><path d="M 13.5359954833984 7.302001953125 L 10.968994140625 16.9039993286133 L 8.9349975585938 17.7040023803711 L 8.2019958496094 20.4380035400391 L 10.2689971923828 19.7379989624023 L 8.9019927978516 25.4059982299805 L 23.7050018310547 25.4390029907227 L 24.6049957275391 21.8050003051758 L 15.6030120849609 21.8050003051758 L 16.7700042724609 17.4370040893555 L 19.2039947509766 16.4030075073242 L 19.9040069580078 13.7360000610352 L 17.5370025634766 14.536003112793 L 19.4040069580078 7.4010009765625 Z M 16.3700103759766 0.0020065307617 C 25.4078216552734 0.0075149536133 32.7333831787109 7.3321685791016 32.7400054931641 16.370002746582 C 32.7344818115234 25.4086227416992 25.4086151123047 32.734489440918 16.3700103759766 32.7399978637695 C 7.3313751220703 32.734489440918 0.0055084228516 25.4086227416992 0 16.370002746582 C 0.0330047607422 7.3349990844727 7.3349914550781 0 16.3700103759766 0 Z M 16.3700103759766 0.0020065307617" stroke="none" fill="#b8b9bb"></path></g><g id="juhn19whgpd" transform="translate(38.79100036621094 8.550003051757812)" class=""><path d="M 5.8299865722656 1.6879959106445 C 5.8278198242188 2.2923965454102 5.33837890625 2.7818069458008 4.7340087890625 2.7840042114258 C 4.1296081542969 2.7818069458008 3.6401977539063 2.2923965454102 3.6380004882813 1.6879959106445 C 3.6401977539063 1.083610534668 4.1296081542969 0.5941925048828 4.7340087890625 0.5920028686523 C 5.3479919433594 0.6139984130859 5.8299865722656 1.0960006713867 5.8299865722656 1.6879959106445 Z M 47.6470031738281 1.7200012207031 C 47.6448059082031 2.3243942260742 47.1553955078125 2.8138046264648 46.5509948730469 2.8160018920898 C 45.9465942382813 2.8138046264648 45.4571838378906 2.3243942260742 45.4549865722656 1.7200012207031 C 45.4571838378906 1.115608215332 45.9465942382813 0.6261978149414 46.5509948730469 0.6240005493164 C 47.1553955078125 0.6261978149414 47.6448059082031 1.115608215332 47.6470031738281 1.7200012207031 Z M 1e-13 1e-13 L 1.4459838867188 0 L 1.4459838867188 15.4070053100586 L 0 15.4070053100586 Z M 12.1849975585938 5.4359970092773 L 12.1629943847656 6.7509994506836 L 10.1029968261719 6.7730026245117 L 10.1029968261719 15.4199981689453 L 8.656982421875 15.4199981689453 L 8.656982421875 6.7630004882813 L 6.9039916992188 6.7630004882813 L 6.9039916992188 5.4029998779297 L 8.656982421875 5.4029998779297 L 8.656982421875 1.677001953125 L 10.1029968261719 1.677001953125 L 10.1029968261719 5.4029998779297 L 12.1849975585938 5.4029998779297 Z M 16.635009765625 5.3919982910156 C 18.0599975585938 5.1070022583008 19.614990234375 5.2919998168945 20.7990112304688 6.1590042114258 C 22.3330078125 7.254997253418 22.9469909667969 9.2929992675781 22.7059936523438 11.088996887207 L 14.2659912109375 11.088996887207 C 14.39599609375 12.0309982299805 14.8580017089844 12.9290008544922 15.64599609375 13.4889984130859 C 17.2019958496094 14.6510009765625 19.7009887695313 14.3440017700195 20.7959899902344 12.7220001220703 L 20.9929809570313 12.5250015258789 C 21.4750061035156 12.5909957885742 21.9349975585938 12.7220001220703 22.39599609375 12.8100051879883 C 21.9360046386719 13.8619995117188 21.0589904785156 14.7170028686523 19.9960021972656 15.1769943237305 C 18.7022705078125 15.7376174926758 17.2420654296875 15.7770233154297 15.9199829101563 15.286994934082 C 14.6929931640625 14.8270034790039 13.6849975585938 13.8409957885742 13.1799926757813 12.6129989624023 C 12.5880126953125 11.1129989624023 12.6319885253906 9.4130020141602 13.3099975585938 7.9670028686523 C 13.9240112304688 6.629997253418 15.1950073242188 5.6669998168945 16.6099853515625 5.3810043334961 Z M 15.2980041503906 7.6920013427734 C 14.7279968261719 8.2399978637695 14.3980102539063 9.0069961547852 14.2680053710938 9.7740020751953 L 21.2680053710938 9.7740020751953 C 21.1679992675781 8.5039978027344 20.3040161132813 7.2760009765625 19.0540161132813 6.8810043334961 C 17.7839965820313 6.443000793457 16.2489929199219 6.7509994506836 15.3059997558594 7.6809997558594 Z M 25.2279968261719 6.9260025024414 C 27.1130065917969 4.8440017700195 30.7279968261719 4.6910018920898 32.7680053710938 6.6189956665039 L 31.7380065917969 7.6490020751953 C 30.31298828125 6.3990020751953 28.0119934082031 6.3990020751953 26.5880126953125 7.6269989013672 C 24.8880004882813 9.072998046875 24.9880065917969 12.0770034790039 26.7630004882813 13.4130020141602 C 28.18798828125 14.5309982299805 30.3789978027344 14.4650039672852 31.7380065917969 13.2379989624023 L 32.7680053710938 14.2459945678711 C 30.8380126953125 15.9990005493164 27.552001953125 16.0660018920898 25.6229858398438 14.3339996337891 C 23.56298828125 12.4939956665039 23.3880004882813 8.963996887207 25.22900390625 6.9260025024414 Z M 51.2630004882813 7.0260009765625 C 51.8110046386719 5.8639984130859 53.2130126953125 5.2509994506836 54.5499877929688 5.2509994506836 C 55.1640014648438 5.2509994506836 55.7770080566406 5.3509979248047 56.2799987792969 5.6009979248047 C 57.2879943847656 6.0390014648438 57.8580017089844 6.8939971923828 58.1430053710938 7.8810043334961 C 58.3179931640625 8.4509963989258 58.3829956054688 9.0640029907227 58.3829956054688 9.6559982299805 L 58.3609924316406 15.4420013427734 L 56.9360046386719 15.4420013427734 L 56.9360046386719 9.7439956665039 C 56.9360046386719 8.8889999389648 56.760986328125 7.9690017700195 56.1690063476563 7.3440017700195 C 55.5769958496094 6.7519989013672 54.656982421875 6.5989990234375 53.8689880371094 6.7740020751953 C 52.9490051269531 6.9039993286133 52.0719909667969 7.4540023803711 51.6340026855469 8.3079986572266 C 51.3710021972656 8.8339996337891 51.260986328125 9.4039993286133 51.260986328125 9.9959945678711 L 51.260986328125 15.452995300293 L 49.8150024414063 15.452995300293 L 49.8150024414063 5.4800033569336 L 51.260986328125 5.5019989013672 Z M 37.52099609375 5.370002746582 C 38.9459838867188 5.1070022583008 40.4809875488281 5.3259963989258 41.6849975585938 6.1370010375977 C 42.8250122070313 6.8600006103516 43.5919799804688 8.0869979858398 43.8110046386719 9.4029998779297 C 44.031005859375 10.7829971313477 43.8110046386719 12.2529983520508 43.010986328125 13.4029998779297 C 42.0910034179688 14.7829971313477 40.4249877929688 15.6169967651367 38.7590026855469 15.5950012207031 C 37.3559875488281 15.661003112793 35.9320068359375 15.1350021362305 34.9459838867188 14.1269989013672 C 33.2799987792969 12.5270004272461 33.0159912109375 9.8089981079102 34.0910034179688 7.8150024414063 C 34.77099609375 6.5219955444336 36.0849914550781 5.6230010986328 37.510986328125 5.3600006103516 Z M 37.6510009765625 6.8160018920898 C 36.489013671875 7.0790023803711 35.5029907226563 7.9339981079102 35.1090087890625 9.0510025024414 C 34.5390014648438 10.6070022583008 35.02099609375 12.536003112793 36.4020080566406 13.4780044555664 C 38.0239868164063 14.661003112793 40.5659790039063 14.3550033569336 41.75 12.7109985351563 C 42.6075744628906 11.4889373779297 42.7091369628906 9.8897171020508 42.0130004882813 8.5690002441406 C 41.2130126953125 7.0349960327148 39.2730102539063 6.3769989013672 37.6530151367188 6.8160018920898 Z M 4.010986328125 15.4199981689453 L 4.010986328125 5.4700012207031 L 5.3909912109375 5.4260025024414 L 5.4129943847656 15.4199981689453 Z M 47.2510070800781 15.4199981689453 L 45.8469848632813 15.4199981689453 L 45.8689880371094 5.4260025024414 L 47.2489929199219 5.4260025024414 Z M 47.2510070800781 15.4199981689453" stroke="none" fill="#626264"></path></g></g></g></symbol></svg>